<?xml version="1.0" encoding="UTF-8"?>
<svg version="1.1" xmlns="http://www.w3.org/2000/svg" width="222" height="227">
<path d="M0 0 C73.26 0 146.52 0 222 0 C222 74.91 222 149.82 222 227 C148.74 227 75.48 227 0 227 C0 152.09 0 77.18 0 0 Z " fill="#010101" transform="translate(0,0)"/>
<path d="M0 0 C0.71800781 0.61488281 1.43601563 1.22976562 2.17578125 1.86328125 C2.98660156 2.52972656 3.79742187 3.19617188 4.6328125 3.8828125 C15.48418044 13.13397872 22.29015483 24.07008684 28.17578125 36.86328125 C26.85578125 37.19328125 25.53578125 37.52328125 24.17578125 37.86328125 C23.72589844 37.13625 23.27601563 36.40921875 22.8125 35.66015625 C13.67420484 21.37584719 2.59225653 9.42232719 -12.82421875 1.86328125 C-13.7059375 1.43015625 -14.58765625 0.99703125 -15.49609375 0.55078125 C-34.48491131 -8.07116835 -56.35119526 -8.54192958 -76.07421875 -2.0703125 C-79.07381642 -0.88687748 -81.94035993 0.42135184 -84.82421875 1.86328125 C-85.8090625 2.35570313 -86.79390625 2.848125 -87.80859375 3.35546875 C-106.30649902 13.37117394 -117.13211843 29.20013396 -125.82421875 47.86328125 C-125.32921875 48.35828125 -125.32921875 48.35828125 -124.82421875 48.86328125 C-124.12296875 48.38117188 -123.42171875 47.8990625 -122.69921875 47.40234375 C-121.75046875 46.77070312 -120.80171875 46.1390625 -119.82421875 45.48828125 C-118.89609375 44.86179687 -117.96796875 44.2353125 -117.01171875 43.58984375 C-110.76602213 40.20675808 -104.47441392 39.47541312 -97.44921875 39.48828125 C-96.34429077 39.48634766 -96.34429077 39.48634766 -95.21704102 39.484375 C-89.1574345 39.6014046 -84.16884254 40.9217684 -78.82421875 43.86328125 C-80.0087085 46.31649113 -81.23020203 48.46570805 -82.76171875 50.73828125 C-84.7143736 53.69684921 -86.30194308 56.66650233 -87.82421875 59.86328125 C-90.17184614 59.32152108 -92.31975679 58.67182337 -94.57421875 57.80078125 C-99.70000287 56.32218968 -103.87877156 56.20182921 -108.94921875 57.92578125 C-112.98649898 60.64655706 -116.91637088 64.10168413 -118.4765625 68.84765625 C-119.59815614 75.35037891 -118.96547795 80.02951417 -115.82421875 85.86328125 C-112.62675046 89.80682547 -109.62204704 91.54435782 -104.5625 92.12109375 C-97.6642128 92.43801353 -92.49966827 91.02005419 -87.21875 86.484375 C-86.03899773 85.3244505 -84.92338262 84.09984061 -83.82421875 82.86328125 C-80.42980293 84.47966974 -77.28016583 86.40316853 -74.07421875 88.36328125 C-65.90573664 93.11423638 -58.3493091 94.95369563 -48.82421875 93.86328125 C-48.16421875 93.20328125 -47.50421875 92.54328125 -46.82421875 91.86328125 C-46.82421875 90.54328125 -46.82421875 89.22328125 -46.82421875 87.86328125 C-51.2464321 86.11108351 -55.59299769 84.61828798 -60.19921875 83.42578125 C-68.27405866 81.26427764 -75.93990288 79.03463692 -81.82421875 72.86328125 C-84.48454578 68.0746926 -85.49365794 64.31442891 -84.82421875 58.86328125 C-82.91134825 53.4846185 -80.12906091 49.64314265 -75.82421875 45.86328125 C-75.01984375 45.14140625 -74.21546875 44.41953125 -73.38671875 43.67578125 C-67.61828806 39.59567174 -62.02720062 39.60121114 -55.23876953 39.72802734 C-54.29179703 39.73748886 -53.34482452 39.74695038 -52.36915588 39.75669861 C-49.25241303 39.79026152 -46.13607746 39.8384084 -43.01953125 39.88671875 C-40.85335338 39.9128977 -38.68716431 39.93816375 -36.52096558 39.96255493 C-30.82940446 40.02908988 -25.13808009 40.10800801 -19.44671631 40.18951416 C-12.61271955 40.28480347 -5.77852754 40.36469716 1.05563354 40.44717407 C11.42921342 40.57408844 21.80235265 40.72054534 32.17578125 40.86328125 C32.17578125 57.36328125 32.17578125 73.86328125 32.17578125 90.86328125 C38.11578125 90.86328125 44.05578125 90.86328125 50.17578125 90.86328125 C51.14762293 95.72248966 51.03374476 97.52077498 49.80078125 102.11328125 C49.52492187 103.1703125 49.2490625 104.22734375 48.96484375 105.31640625 C48.17578125 107.86328125 48.17578125 107.86328125 47.17578125 108.86328125 C44.66653972 108.96415337 42.18541741 109.00300157 39.67578125 108.99609375 C38.92490234 108.99705048 38.17402344 108.9980072 37.40039062 108.99899292 C35.80989498 108.99967463 34.21939658 108.99782097 32.62890625 108.99365234 C30.1861347 108.98830392 27.74354704 108.99359759 25.30078125 109 C23.75911418 108.99933922 22.21744722 108.99805805 20.67578125 108.99609375 C19.94037109 108.99811798 19.20496094 109.00014221 18.44726562 109.00222778 C13.29073286 108.97823286 13.29073286 108.97823286 12.17578125 107.86328125 C12.08251409 106.29781077 12.05832543 104.72815353 12.06225586 103.15991211 C12.06233139 102.15895004 12.06240692 101.15798798 12.06248474 100.12669373 C12.06764603 99.03816605 12.07280731 97.94963837 12.078125 96.828125 C12.08024742 95.16554405 12.08024742 95.16554405 12.08241272 93.46937561 C12.08803092 89.91315056 12.1005865 86.35698742 12.11328125 82.80078125 C12.11829391 80.39648528 12.12285722 77.99218833 12.12695312 75.58789062 C12.13800626 69.67966348 12.15528309 63.77148288 12.17578125 57.86328125 C7.88578125 57.86328125 3.59578125 57.86328125 -0.82421875 57.86328125 C-0.82421875 74.69328125 -0.82421875 91.52328125 -0.82421875 108.86328125 C-7.09421875 108.86328125 -13.36421875 108.86328125 -19.82421875 108.86328125 C-19.82421875 92.03328125 -19.82421875 75.20328125 -19.82421875 57.86328125 C-24.77421875 58.19328125 -29.72421875 58.52328125 -34.82421875 58.86328125 C-35.48421875 59.85328125 -36.14421875 60.84328125 -36.82421875 61.86328125 C-42.3818747 60.05704306 -42.3818747 60.05704306 -44.65234375 59.0625 C-50.12174133 56.71688437 -54.91790577 56.53649754 -60.82421875 56.86328125 C-61.15421875 58.51328125 -61.48421875 60.16328125 -61.82421875 61.86328125 C-54.47923461 64.70799789 -54.47923461 64.70799789 -46.88671875 66.73828125 C-40.31212984 68.29004758 -32.06018597 71.28773966 -28.13671875 77.05078125 C-25.1785525 83.38970892 -24.90175048 88.95022357 -27.01171875 95.61328125 C-30.00263769 100.97630832 -34.45152699 105.53497639 -40.234375 107.8125 C-51.89118085 111.05717792 -63.19424951 110.81979022 -74.36328125 105.69921875 C-78.95057176 104.14099626 -82.56398048 106.11388113 -86.82421875 107.92578125 C-98.26585402 112.17200217 -109.06827554 110.06887661 -119.82421875 105.23828125 C-121.4940375 104.45328493 -123.16183979 103.66391229 -124.82421875 102.86328125 C-120.55640245 111.89774951 -116.41072929 120.25742979 -109.82421875 127.86328125 C-109.21578125 128.66765625 -108.60734375 129.47203125 -107.98046875 130.30078125 C-96.07455563 144.44983742 -76.87171573 152.77663142 -58.82421875 154.86328125 C-34.06527921 156.85455255 -12.15417914 149.86003562 6.98828125 134.11328125 C13.28115292 128.266546 17.80365206 120.7498206 22.25 113.46484375 C22.88550781 112.60632813 23.52101562 111.7478125 24.17578125 110.86328125 C25.16578125 110.86328125 26.15578125 110.86328125 27.17578125 110.86328125 C25.5445465 124.6676053 13.41248818 138.01859514 3.17578125 146.86328125 C-0.06333982 149.35026743 -3.40500967 151.6320149 -6.82421875 153.86328125 C-7.59507812 154.37890625 -8.3659375 154.89453125 -9.16015625 155.42578125 C-24.08482751 164.94583734 -40.42739509 169.40961408 -58.0168457 169.19946289 C-60.15158234 169.17561521 -62.28508329 169.17896013 -64.41992188 169.18554688 C-70.91919506 169.15932399 -76.57219364 168.8572842 -82.82421875 166.86328125 C-83.57445313 166.67507812 -84.3246875 166.486875 -85.09765625 166.29296875 C-109.31174095 159.90189063 -130.23192741 143.43714947 -142.82421875 121.86328125 C-154.34775121 100.97020019 -159.46900706 74.21496587 -152.82421875 50.86328125 C-144.33530416 23.95582318 -128.0142751 3.05131166 -102.97143555 -10.40527344 C-70.51201146 -27.16206414 -28.35692378 -23.3802059 0 0 Z " fill="#F9F9F9" transform="translate(157.82421875,34.13671875)"/>
<path d="M0 0 C0 3.13751221 -0.35179805 4.39757586 -2 7 C-2.99 7.33 -3.98 7.66 -5 8 C-4.64950425 4.75791433 -4.43778819 3.38472296 -1.9375 1.1875 C-1.298125 0.795625 -0.65875 0.40375 0 0 Z " fill="#121212" transform="translate(77,83)"/>
</svg>
